<?xml version="1.0" encoding="utf-8"?>
<!-- Generator: Adobe Illustrator 25.0.0, SVG Export Plug-In . SVG Version: 6.00 Build 0)  -->
<svg version="1.1" id="Layer_1" xmlns="http://www.w3.org/2000/svg" xmlns:xlink="http://www.w3.org/1999/xlink" x="0px" y="0px"
	 width="161.9px" height="60px" viewBox="0 0 161.9 60" style="enable-background:new 0 0 161.9 60;" xml:space="preserve">
<style type="text/css">
	.st0{fill:#009245;}
	.st1{fill:#2E3192;}
</style>
<polygon class="st0" points="153.2,0 153.2,8.7 161.9,0 "/>
<polygon class="st0" points="83.1,0 83.1,8.7 91.8,0 "/>
<g>
	<path class="st0" d="M32,45.5c1.7,1.6,2.6,3.6,2.6,6s-0.9,4.4-2.6,6c-1.7,1.6-3.8,2.5-6.2,2.5c-2.5,0-4.6-0.8-6.3-2.5
		c-1.7-1.6-2.5-3.6-2.5-6s0.8-4.4,2.5-6s3.8-2.5,6.3-2.5C28.2,43,30.3,43.9,32,45.5z M28.4,54.4c0.7-0.8,1.1-1.7,1.1-2.9
		c0-1.1-0.4-2.1-1.1-2.9c-0.7-0.8-1.6-1.1-2.7-1.1s-2,0.4-2.7,1.1c-0.7,0.8-1.1,1.7-1.1,2.9c0,1.1,0.4,2.1,1.1,2.9
		c0.7,0.8,1.6,1.1,2.7,1.1S27.7,55.1,28.4,54.4z"/>
	<path class="st0" d="M45.2,47.6v12h-5v-12h-5v-4.2h15.1v4.2H45.2z"/>
	<path class="st0" d="M65.9,45.5c1.7,1.6,2.6,3.6,2.6,6s-0.9,4.4-2.6,6S62.1,60,59.7,60c-2.5,0-4.6-0.8-6.3-2.5
		c-1.7-1.6-2.5-3.6-2.5-6s0.8-4.4,2.5-6s3.8-2.5,6.3-2.5C62.1,43,64.1,43.9,65.9,45.5z M62.3,54.4c0.7-0.8,1.1-1.7,1.1-2.9
		c0-1.1-0.4-2.1-1.1-2.9c-0.7-0.8-1.6-1.1-2.7-1.1c-1.1,0-2,0.4-2.7,1.1c-0.7,0.8-1.1,1.7-1.1,2.9c0,1.1,0.4,2.1,1.1,2.9
		c0.7,0.8,1.6,1.1,2.7,1.1S61.6,55.1,62.3,54.4z"/>
	<path class="st0" d="M87.1,44.3c1.3,0.8,2,2,2.3,3.5l-4.9,1c-0.3-1.3-1.1-1.9-2.3-1.9c-0.5,0-0.8,0.1-1.1,0.3
		c-0.3,0.2-0.4,0.5-0.4,0.8c0,0.5,0.3,0.8,0.8,0.9l3.2,0.8c1.6,0.4,2.8,1,3.6,1.8c0.8,0.8,1.2,1.8,1.2,3.1c0,1.2-0.4,2.3-1.1,3.2
		s-1.6,1.5-2.7,1.8c-1,0.3-2.1,0.5-3.3,0.5c-2,0-3.7-0.5-5.1-1.4s-2.2-2.2-2.4-3.7l5.1-1c0.3,1.4,1.2,2,2.5,2c0.5,0,0.9-0.1,1.2-0.3
		c0.3-0.2,0.5-0.5,0.5-0.8c0-0.5-0.3-0.8-0.9-0.9L80,53.2c-3-0.7-4.5-2.3-4.5-4.8c0-1.7,0.6-3,1.9-4c1.3-0.9,2.9-1.4,4.9-1.4
		C84.2,43,85.9,43.4,87.1,44.3z"/>
	<path class="st0" d="M104.2,59.6H91.1V43.4h13v4.1h-7.9v2.1h7.3v3.7h-7.3v2.1h8.1L104.2,59.6L104.2,59.6z"/>
	<path class="st0" d="M115.6,59.6l-4.2-5H111v5h-5V43.4h8.9c1.8,0,3.2,0.5,4.3,1.5c1.1,1,1.6,2.4,1.6,4c0,1.3-0.3,2.4-1,3.3
		c-0.7,0.9-1.6,1.6-2.8,2l4.6,5.4C121.6,59.6,115.6,59.6,115.6,59.6z M111,50.8h2.8c0.6,0,1.1-0.2,1.5-0.5s0.5-0.7,0.5-1.2
		s-0.2-0.9-0.5-1.2c-0.4-0.3-0.9-0.4-1.5-0.4H111V50.8z"/>
	<path class="st0" d="M132.1,59.6h-4.9l-6.8-16.2h5.6l3.6,9.2l3.6-9.2h5.6L132.1,59.6z"/>
	<path class="st0" d="M144.3,37.9c0.5,0.5,0.8,1.1,0.8,1.8s-0.3,1.4-0.8,1.8c-0.5,0.5-1.1,0.7-1.9,0.7c-0.8,0-1.4-0.2-1.9-0.7
		s-0.7-1.1-0.7-1.8s0.3-1.3,0.8-1.8s1.1-0.8,1.9-0.8S143.8,37.4,144.3,37.9z"/>
	<rect x="139.9" y="43.4" class="st0" width="5" height="16.2"/>
	<path class="st0" d="M158.8,44.3c1.3,0.8,2,2,2.3,3.5l-4.9,1c-0.3-1.3-1.1-1.9-2.3-1.9c-0.5,0-0.8,0.1-1.1,0.3s-0.4,0.5-0.4,0.8
		c0,0.5,0.3,0.8,0.8,0.9l3.2,0.8c1.6,0.4,2.8,1,3.6,1.8s1.2,1.8,1.2,3.1c0,1.2-0.4,2.3-1.1,3.2c-0.7,0.9-1.6,1.5-2.7,1.8
		c-1,0.3-2.1,0.5-3.3,0.5c-2,0-3.7-0.5-5.1-1.4c-1.4-0.9-2.2-2.2-2.4-3.7l5.1-0.9c0.3,1.4,1.2,2,2.5,2c0.5,0,0.9-0.1,1.2-0.3
		s0.5-0.5,0.5-0.8c0-0.5-0.3-0.8-0.9-0.9l-3.3-0.8c-3-0.7-4.5-2.3-4.5-4.8c0-1.7,0.6-3,1.9-4c1.3-0.9,2.9-1.4,4.9-1.4
		C155.9,43,157.5,43.4,158.8,44.3z"/>
</g>
<polygon class="st1" points="153.2,11.7 153.2,34.9 161.9,34.9 161.9,11.7 161.9,3 "/>
<polygon class="st1" points="83,11.7 83,34.9 91.7,34.9 91.7,11.7 91.7,3 "/>
<polygon class="st1" points="62,26.1 79.4,8.7 79.4,0 50.1,0 50.1,8.7 67.1,8.7 49.6,26.1 49.6,34.9 52.8,34.9 53.2,34.9 79.8,34.9 
	79.8,26.1 "/>
<polygon class="st1" points="117.2,26.1 103.9,26.1 103.9,0.1 95.2,0.1 95.2,26.1 95.2,26.1 95.2,34.9 95.2,34.9 95.2,34.9 
	103.9,34.9 103.9,34.9 117.2,34.9 "/>
<polygon class="st1" points="134.1,17.4 151.6,0 139.2,0 128,11.3 127.9,11.2 127.9,0 119.2,0 119.2,2.5 119.2,14.8 119.2,20 
	119.2,32.3 119.2,34.9 127.9,34.9 127.9,23.6 128,23.6 139.2,34.9 151.6,34.9 "/>
<path class="st1" d="M32.7,0L32.7,0H0c0,4.7,3.8,8.6,8.6,8.6h9.1c-0.8,1.4-1.5,2.9-1.9,4.5h-8l0,0c0,4.5,3.5,8.2,8,8.6
	c1.9,7.6,8.7,13.2,16.9,13.2c9.6,0,17.4-7.8,17.4-17.4S42.3,0,32.7,0z M32.7,26.1c-4.8,0-8.7-3.9-8.7-8.7s3.9-8.7,8.7-8.7
	s8.7,3.9,8.7,8.7S37.5,26.1,32.7,26.1z"/>
<path class="st0" d="M32,45.5c1.7,1.6,2.6,3.6,2.6,6s-0.9,4.4-2.6,6c-1.7,1.6-3.8,2.5-6.2,2.5c-2.5,0-4.6-0.8-6.3-2.5
	c-1.7-1.6-2.5-3.6-2.5-6s0.8-4.4,2.5-6s3.8-2.5,6.3-2.5C28.2,43,30.3,43.9,32,45.5z M28.4,54.4c0.7-0.8,1.1-1.7,1.1-2.9
	c0-1.1-0.4-2.1-1.1-2.9c-0.7-0.8-1.6-1.1-2.7-1.1s-2,0.4-2.7,1.1c-0.7,0.8-1.1,1.7-1.1,2.9c0,1.1,0.4,2.1,1.1,2.9
	c0.7,0.8,1.6,1.1,2.7,1.1S27.7,55.1,28.4,54.4z"/>
<path class="st0" d="M45.2,47.6v12h-5v-12h-5v-4.2h15.1v4.2H45.2z"/>
<path class="st0" d="M65.9,45.5c1.7,1.6,2.6,3.6,2.6,6s-0.9,4.4-2.6,6S62.1,60,59.7,60c-2.5,0-4.6-0.8-6.3-2.5
	c-1.7-1.6-2.5-3.6-2.5-6s0.8-4.4,2.5-6s3.8-2.5,6.3-2.5C62.1,43,64.1,43.9,65.9,45.5z M62.3,54.4c0.7-0.8,1.1-1.7,1.1-2.9
	c0-1.1-0.4-2.1-1.1-2.9c-0.7-0.8-1.6-1.1-2.7-1.1c-1.1,0-2,0.4-2.7,1.1c-0.7,0.8-1.1,1.7-1.1,2.9c0,1.1,0.4,2.1,1.1,2.9
	c0.7,0.8,1.6,1.1,2.7,1.1S61.6,55.1,62.3,54.4z"/>
</svg>
