<?xml version="1.0" encoding="utf-8"?>
<!-- Generator: Adobe Illustrator 25.0.0, SVG Export Plug-In . SVG Version: 6.00 Build 0)  -->
<svg version="1.1" id="Layer_1" xmlns="http://www.w3.org/2000/svg" xmlns:xlink="http://www.w3.org/1999/xlink" x="0px" y="0px"
	 width="143px" height="100px" viewBox="0 0 143 100" style="enable-background:new 0 0 143 100;" xml:space="preserve">
<style type="text/css">
	.st0{fill:#B4995C;}
</style>
<g>
	<path class="st0" d="M39.2,44.8c0.8,1.4,1.6,2.7,2.2,3.9c3.1,5.5,6.2,10.9,9.5,16.4l0,0c0.2-0.5,0.3-1.1,0.6-1.6
		c1.2-2.5,3.9-4.4,6.6-4.7c-4.5-7.8-8.9-15.6-13.4-23.4c-0.6-1.1-1.2-1.4-2.5-1.4c-13.6,0-27,0-40.6,0H0.1c-0.3,0.6,0.2,1.1,0.5,1.6
		c1.2,2.3,2,3.9,3.6,6.2c0.9,1.2,1.6,1.7,3,1.7c9.8,0,19.7,0,29.5,0C37.8,43.6,38.5,43.8,39.2,44.8"/>
	<path class="st0" d="M90.3,82.5h-1.6c1.4-0.8,3.8-3.1,3.8-6.1c0-6.9-6.7-6.9-6.7-6.9c2-2.8-0.3-4.5-1.6-4.5c-1.1,0-3.8,0.2-5.2-3.1
		c-3.4-7.7-0.9-19.2,0.9-24.7c1.9-5.5,3.9-5.5,3.9-5.5s1.7,0,1.7-1.4c0-2-2.8-1.2-2.8-1.2c1.4-1.9-0.5-2.2-0.5-2.2
		c3.1-1.6,3.1-4.4,3.1-4.4V11.1c-5.8,8.9-11.7,3.1-11.7,3.1c5.5,2.5,8.6-1.7,8.6-1.7c-1.7-7-8.6-8.1-8.6-8.1c2-2.2,0.6-4.4,0.6-4.4
		h-2.7H69c0,0-1.6,2.2,0.6,4.4c0,0-6.9,0.9-8.6,8.1c0,0,3,4.2,8.6,1.7c0,0-5.9,5.8-11.7-3.1v11.6c0,0,0,2.8,3.1,4.4
		c0,0-1.9,0.3-0.5,2.2c0,0-2.8-0.8-2.8,1.2c0,1.2,1.7,1.4,1.7,1.4s2,0,3.9,5.5c1.9,5.5,4.4,17,0.9,24.7c-1.4,3.3-4.1,3.1-5.2,3.1
		c-1.1,0-3.6,1.7-1.6,4.5c0,0-6.7,0-6.7,6.9c0,3.1,2.3,5.5,3.8,6.1h-1.6c0,0-2.2-0.2-2.2,2c0,2,2.5,2,2.5,2h18.3h18.3
		c0,0,2.5,0,2.5-2C92.4,82.5,90.3,82.5,90.3,82.5 M71.7,81.6c-2.7,0-5-2.2-5-5c0-2.7,2.2-5,5-5c2.7,0,5,2.2,5,5S74.5,81.6,71.7,81.6
		"/>
	<path class="st0" d="M103.4,44.8c-0.8,1.4-1.6,2.7-2.2,3.9c-3.1,5.5-6.2,10.9-9.5,16.4l0,0c-0.2-0.5-0.3-1.1-0.6-1.6
		c-1.2-2.5-3.9-4.4-6.6-4.7c4.5-7.8,8.9-15.6,13.4-23.4c0.6-1.1,1.2-1.4,2.5-1.4c13.6,0,27,0,40.6,0h1.2c0.3,0.6-0.2,1.1-0.5,1.6
		c-1.3,2.3-2,3.9-3.6,6.2c-0.9,1.2-1.6,1.7-3,1.7c-9.8,0-19.7,0-29.5,0C104.8,43.6,104,43.8,103.4,44.8"/>
	<path class="st0" d="M99.3,80.9c-0.2-2.5-1.6-3.8-1.6-3.8c2.7,0,5.2,0,7.8,0c0.9,0,1.6-0.3,2.2-1.2c3-5.3,6.1-10.5,9.1-15.8
		c0.5-0.9,1.1-1.2,2-1.2c2.7,0,5.2,0,7.8,0c1.6,0,1.6,0.5,0.8,1.6c-1.7,2.8-3.3,5.6-5,8.4c-3.1,5.3-6.1,10.6-9.1,16.1
		c-0.6,1.1-1.2,1.4-2.5,1.4c-4.4,0-8.9,0-13.3,0C97.6,86.6,99.3,83.3,99.3,80.9"/>
	<path class="st0" d="M43.2,80.9c0.2-2.5,1.6-3.8,1.6-3.8c-2.7,0-5.2,0-7.8,0c-0.9,0-1.6-0.3-2.2-1.2c-3-5.3-6.1-10.5-9.1-15.8
		c-0.5-0.9-1.1-1.2-2-1.2c-2.7,0-5.2,0-7.8,0c-1.6,0-1.6,0.5-0.8,1.6c1.7,2.8,3.3,5.6,5,8.4c3.1,5.3,6.1,10.6,9.1,16.1
		c0.6,1.1,1.2,1.4,2.5,1.4c4.4,0,8.9,0,13.3,0C44.9,86.6,43.1,83.3,43.2,80.9"/>
	<path class="st0" d="M102.9,100H39.3c-1.7,0-3.4-0.9-4.2-2.5l-2.8-5.3c-0.3-0.5,0.2-1.1,0.6-1.1h76.4c0.5,0,0.9,0.6,0.6,1.1
		l-2.8,5.3C106.2,98.9,104.6,100,102.9,100"/>
</g>
</svg>
