<?xml version="1.0" encoding="utf-8"?>
<!-- Generator: Adobe Illustrator 25.0.0, SVG Export Plug-In . SVG Version: 6.00 Build 0)  -->
<svg version="1.1" id="Layer_1" xmlns="http://www.w3.org/2000/svg" xmlns:xlink="http://www.w3.org/1999/xlink" x="0px" y="0px"
	 width="251px" height="80px" viewBox="0 0 251 80" style="enable-background:new 0 0 251 80;" xml:space="preserve">
<style type="text/css">
	.st0{fill:#B4995C;}
	.st1{fill:#28282D;}
	.st2{fill:none;stroke:#B4995C;stroke-miterlimit:10;}
</style>
<g>
	<path class="st0" d="M25,28.7c0.5,0.9,1,1.7,1.4,2.5c2,3.5,4,7,6.1,10.5c0,0,0,0,0,0c0.1-0.3,0.2-0.7,0.4-1c0.8-1.6,2.5-2.8,4.2-3
		c-2.9-5-5.7-10-8.6-15c-0.4-0.7-0.8-0.9-1.6-0.9c-8.7,0-17.3,0-26,0H0c-0.2,0.4,0.1,0.7,0.3,1c0.8,1.5,1.3,2.5,2.3,4
		c0.6,0.8,1,1.1,1.9,1.1c6.3,0,12.6,0,18.9,0C24.1,27.9,24.6,28,25,28.7"/>
	<path class="st0" d="M57.7,52.8h-1c0.9-0.5,2.4-2,2.4-3.9c0-4.4-4.3-4.4-4.3-4.4c1.3-1.8-0.2-2.9-1-2.9c-0.7,0-2.4,0.1-3.3-2
		c-2.2-4.9-0.6-12.3,0.6-15.8c1.2-3.5,2.5-3.5,2.5-3.5s1.1,0,1.1-0.9c0-1.3-1.8-0.8-1.8-0.8c0.9-1.2-0.3-1.4-0.3-1.4
		c2-1,2-2.8,2-2.8V7.1c-3.7,5.7-7.5,2-7.5,2c3.5,1.6,5.5-1.1,5.5-1.1c-1.1-4.5-5.5-5.2-5.5-5.2C48.4,1.4,47.5,0,47.5,0h-1.7h-1.7
		c0,0-1,1.4,0.4,2.8c0,0-4.4,0.6-5.5,5.2c0,0,1.9,2.7,5.5,1.1c0,0-3.8,3.7-7.5-2v7.4c0,0,0,1.8,2,2.8c0,0-1.2,0.2-0.3,1.4
		c0,0-1.8-0.5-1.8,0.8c0,0.8,1.1,0.9,1.1,0.9s1.3,0,2.5,3.5c1.2,3.5,2.8,10.9,0.6,15.8c-0.9,2.1-2.6,2-3.3,2c-0.7,0-2.3,1.1-1,2.9
		c0,0-4.3,0-4.3,4.4c0,2,1.5,3.5,2.4,3.9h-1c0,0-1.4-0.1-1.4,1.3c0,1.3,1.6,1.3,1.6,1.3h11.7h11.7c0,0,1.6,0,1.6-1.3
		C59.1,52.8,57.7,52.8,57.7,52.8 M45.8,52.2c-1.7,0-3.2-1.4-3.2-3.2c0-1.7,1.4-3.2,3.2-3.2c1.7,0,3.2,1.4,3.2,3.2
		C49,50.8,47.6,52.2,45.8,52.2"/>
	<path class="st0" d="M66.1,28.7c-0.5,0.9-1,1.7-1.4,2.5c-2,3.5-4,7-6.1,10.5c0,0,0,0,0,0c-0.1-0.3-0.2-0.7-0.4-1
		c-0.8-1.6-2.5-2.8-4.2-3c2.9-5,5.7-10,8.6-15c0.4-0.7,0.8-0.9,1.6-0.9c8.7,0,17.3,0,26,0H91c0.2,0.4-0.1,0.7-0.3,1
		c-0.8,1.5-1.3,2.5-2.3,4c-0.6,0.8-1,1.1-1.9,1.1c-6.3,0-12.6,0-18.9,0C67,27.9,66.5,28,66.1,28.7"/>
	<path class="st0" d="M63.5,51.8c-0.1-1.6-1-2.4-1-2.4c1.7,0,3.3,0,5,0c0.6,0,1-0.2,1.4-0.8c1.9-3.4,3.9-6.7,5.8-10.1
		c0.3-0.6,0.7-0.8,1.3-0.8c1.7,0,3.3,0,5,0c1,0,1,0.3,0.5,1c-1.1,1.8-2.1,3.6-3.2,5.4c-2,3.4-3.9,6.8-5.8,10.3
		c-0.4,0.7-0.8,0.9-1.6,0.9c-2.8,0-5.7,0-8.5,0C62.4,55.4,63.5,53.3,63.5,51.8"/>
	<path class="st0" d="M27.6,51.8c0.1-1.6,1-2.4,1-2.4c-1.7,0-3.3,0-5,0c-0.6,0-1-0.2-1.4-0.8c-1.9-3.4-3.9-6.7-5.8-10.1
		c-0.3-0.6-0.7-0.8-1.3-0.8c-1.7,0-3.3,0-5,0c-1,0-1,0.3-0.5,1c1.1,1.8,2.1,3.6,3.2,5.4c2,3.4,3.9,6.8,5.8,10.3
		c0.4,0.7,0.8,0.9,1.6,0.9c2.8,0,5.7,0,8.5,0C28.7,55.4,27.5,53.3,27.6,51.8"/>
	<path class="st0" d="M65.8,64H25.1c-1.1,0-2.2-0.6-2.7-1.6L20.6,59c-0.2-0.3,0.1-0.7,0.4-0.7h48.9c0.3,0,0.6,0.4,0.4,0.7l-1.8,3.4
		C67.9,63.3,66.9,64,65.8,64"/>
	<path class="st1" d="M104.5,54.7h29.2c2.2,0,4-1.8,4-4c0-2.2-1.8-4-4-4h-16.9c-6.8,0-12.3-5.5-12.3-12.3c0-6.8,5.5-12.3,12.3-12.3
		H146l-5.2,8.3h-24c-2.2,0-4,1.8-4,4c0,2.2,1.8,4,4,4h16.9c6.8,0,12.3,5.5,12.3,12.3c0,6.9-5.6,12.2-12.5,12.2h-23.6l-5.4,8.7V54.7z
		"/>
	<polygon class="st1" points="190.9,63 175.4,37.9 164.9,54.7 174.7,54.7 169.5,63 150,63 175.4,22.3 200.7,63 	"/>
	<polygon class="st1" points="242.4,58.3 242.4,46.8 217.6,46.8 217.6,63 209.3,63 209.3,22.3 217.6,22.3 217.6,38.5 242.4,38.5 
		242.4,22.3 250.7,22.3 250.7,71.7 	"/>
	<path class="st0" d="M167.9,72.8c1,0,1.8,0.4,2.5,1.1c0.7,0.7,1.1,1.6,1.1,2.5c0,1-0.4,1.8-1.1,2.5c-0.7,0.7-1.5,1.1-2.5,1.1
		c-1,0-1.8-0.4-2.5-1.1c-0.7-0.7-1.1-1.5-1.1-2.5c0-1,0.4-1.8,1.1-2.5C166,73.2,166.9,72.8,167.9,72.8 M167.9,74
		c-0.7,0-1.2,0.2-1.7,0.7c-0.5,0.5-0.7,1-0.7,1.7c0,0.7,0.2,1.2,0.7,1.7c0.5,0.5,1,0.7,1.7,0.7c0.7,0,1.2-0.2,1.7-0.7
		c0.5-0.5,0.7-1,0.7-1.7c0-0.7-0.2-1.2-0.7-1.7C169.1,74.2,168.5,74,167.9,74"/>
	<polygon class="st0" points="173.9,72.8 179.9,72.8 179.9,74 177.5,74 177.5,80 176.3,80 176.3,74 173.9,74 	"/>
	<path class="st0" d="M186.1,72.8c1,0,1.8,0.4,2.5,1.1c0.7,0.7,1.1,1.6,1.1,2.5c0,1-0.4,1.8-1.1,2.5c-0.7,0.7-1.5,1.1-2.5,1.1
		c-1,0-1.8-0.4-2.5-1.1c-0.7-0.7-1.1-1.5-1.1-2.5c0-1,0.4-1.8,1.1-2.5C184.3,73.2,185.1,72.8,186.1,72.8 M186.1,74
		c-0.7,0-1.2,0.2-1.7,0.7c-0.5,0.5-0.7,1-0.7,1.7c0,0.7,0.2,1.2,0.7,1.7c0.5,0.5,1,0.7,1.7,0.7c0.7,0,1.2-0.2,1.7-0.7
		c0.5-0.5,0.7-1,0.7-1.7c0-0.7-0.2-1.2-0.7-1.7C187.3,74.2,186.8,74,186.1,74"/>
	<path class="st0" d="M199.7,77c-0.6,0-1.1-0.2-1.5-0.6s-0.6-0.9-0.6-1.5c0-0.6,0.2-1.1,0.6-1.5c0.4-0.4,0.9-0.6,1.5-0.6h3.9V74
		h-3.9c-0.1,0-0.2,0-0.4,0.1c-0.1,0-0.2,0.1-0.3,0.2c-0.1,0.1-0.1,0.2-0.2,0.3c0,0.1-0.1,0.2-0.1,0.3c0,0.2,0.1,0.5,0.3,0.6
		c0.2,0.2,0.4,0.3,0.6,0.3h1.8c0.6,0,1.1,0.2,1.5,0.6c0.4,0.4,0.6,0.9,0.6,1.5c0,0.6-0.2,1.1-0.6,1.5c-0.4,0.4-0.9,0.6-1.5,0.6h-3.9
		v-1.2h3.9c0.1,0,0.2,0,0.4-0.1c0.1,0,0.2-0.1,0.3-0.2c0.1-0.1,0.1-0.2,0.2-0.3c0-0.1,0.1-0.2,0.1-0.4c0-0.2-0.1-0.5-0.3-0.6
		c-0.2-0.2-0.4-0.3-0.6-0.3H199.7z"/>
	<polygon class="st0" points="211.8,72.8 211.8,74 208.2,74 208.2,75.8 211.8,75.8 211.8,77 208.2,77 208.2,78.8 211.8,78.8 
		211.8,80 207,80 207,72.8 	"/>
	<path class="st0" d="M219.9,80l-1.4-2.4h-2V80h-1.2v-7.2h3.6c0.7,0,1.2,0.2,1.7,0.7c0.5,0.5,0.7,1,0.7,1.7c0,0.5-0.1,0.9-0.4,1.4
		c-0.3,0.4-0.6,0.7-1.1,0.9l1.5,2.6H219.9z M218.8,74h-2.4v2.4l2.4,0c0.3,0,0.6-0.1,0.8-0.4c0.2-0.2,0.4-0.5,0.4-0.8
		c0-0.3-0.1-0.6-0.4-0.8C219.4,74.1,219.2,74,218.8,74"/>
	<polygon class="st0" points="225.2,72.8 227.4,77.3 229.7,72.8 231,72.8 227.4,80 223.8,72.8 	"/>
	<path class="st0" d="M241.2,77c-0.6,0-1.1-0.2-1.5-0.6c-0.4-0.4-0.6-0.9-0.6-1.5c0-0.6,0.2-1.1,0.6-1.5c0.4-0.4,0.9-0.6,1.5-0.6
		h3.9V74h-3.9c-0.1,0-0.2,0-0.4,0.1c-0.1,0-0.2,0.1-0.3,0.2c-0.1,0.1-0.1,0.2-0.2,0.3c0,0.1-0.1,0.2-0.1,0.3c0,0.2,0.1,0.5,0.3,0.6
		s0.4,0.3,0.6,0.3h1.8c0.6,0,1.1,0.2,1.5,0.6c0.4,0.4,0.6,0.9,0.6,1.5c0,0.6-0.2,1.1-0.6,1.5c-0.4,0.4-0.9,0.6-1.5,0.6h-3.9v-1.2
		h3.9c0.1,0,0.2,0,0.4-0.1c0.1,0,0.2-0.1,0.3-0.2c0.1-0.1,0.1-0.2,0.2-0.3c0-0.1,0.1-0.2,0.1-0.4c0-0.2-0.1-0.5-0.3-0.6
		c-0.2-0.2-0.4-0.3-0.6-0.3H241.2z"/>
	<rect x="234.5" y="72.8" class="st0" width="1.2" height="1.2"/>
	<rect x="234.5" y="75" class="st0" width="1.2" height="5"/>
	<line class="st2" x1="20.5" y1="78.8" x2="151.4" y2="78.8"/>
</g>
</svg>
